{
  "accessors": [
    {
      "bufferView": 2,
      "componentType": 5126,
      "count": 27678,
      "max": [
        1.3451815843582153,
        1.2494502067565918,
        0.9272056818008423
      ],
      "min": [
        -1.3451815843582153,
        -0.9510883092880249,
        -0.9227591156959534
      ],
      "type": "VEC3"
    },
    {
      "bufferView": 2,
      "byteOffset": 332136,
      "componentType": 5126,
      "count": 27678,
      "max": [
        0.9999963045120239,
        1.0,
        0.9999558925628662
      ],
      "min": [
        -0.9999963045120239,
        -0.9999989867210388,
        -0.9999757409095764
      ],
      "type": "VEC3"
    },
    {
      "bufferView": 3,
      "componentType": 5126,
      "count": 27678,
      "max": [
        1.0,
        1.0,
        0.9999868273735046,
        1.0
      ],
      "min": [
        -0.9999516010284424,
        -0.9999991655349731,
        -0.9999716877937317,
        -1.0
      ],
      "type": "VEC4"
    },
    {
      "bufferView": 1,
      "componentType": 5126,
      "count": 27678,
      "max": [
        0.9970983266830444,
        0.9998142719268799
      ],
      "min": [
        0.0,
        0.0
      ],
      "type": "VEC2"
    },
    {
      "bufferView": 0,
      "componentType": 5125,
      "count": 117576,
      "type": "SCALAR"
    }
  ],
  "asset": {
    "extras": {
      "author": "Lavisher (https://sketchfab.com/Lavish3r)",
      "license": "CC-BY-4.0 (http://creativecommons.org/licenses/by/4.0/)",
      "source": "https://sketchfab.com/3d-models/caged-heels-v2-a24bedd5152241d78900e4f3f0bceadb",
      "title": "Caged Heels V2"
    },
    "generator": "Sketchfab-15.91.0",
    "version": "2.0"
  },
  "bufferViews": [
    {
      "buffer": 0,
      "byteLength": 470304,
      "name": "floatBufferViews",
      "target": 34963
    },
    {
      "buffer": 0,
      "byteLength": 221424,
      "byteOffset": 470304,
      "byteStride": 8,
      "name": "floatBufferViews",
      "target": 34962
    },
    {
      "buffer": 0,
      "byteLength": 664272,
      "byteOffset": 691728,
      "byteStride": 12,
      "name": "floatBufferViews",
      "target": 34962
    },
    {
      "buffer": 0,
      "byteLength": 442848,
      "byteOffset": 1356000,
      "byteStride": 16,
      "name": "floatBufferViews",
      "target": 34962
    }
  ],
  "buffers": [
    {
      "byteLength": 1798848,
      "uri": "scene.bin"
    }
  ],
  "images": [
    {
      "uri": "textures/Heels_V2_baseColor.jpeg"
    },
    {
      "uri": "textures/Heels_V2_metallicRoughness.png"
    },
    {
      "uri": "textures/Heels_V2_normal.jpeg"
    }
  ],
  "materials": [
    {
      "doubleSided": true,
      "name": "Heels_V2",
      "normalTexture": {
        "index": 2
      },
      "pbrMetallicRoughness": {
        "baseColorTexture": {
          "index": 0
        },
        "metallicRoughnessTexture": {
          "index": 1
        },
        "roughnessFactor": 0.7099365936895924
      }
    }
  ],
  "meshes": [
    {
      "name": "Object_0",
      "primitives": [
        {
          "attributes": {
            "NORMAL": 1,
            "POSITION": 0,
            "TANGENT": 2,
            "TEXCOORD_0": 3
          },
          "indices": 4,
          "material": 0,
          "mode": 4
        }
      ]
    }
  ],
  "nodes": [
    {
      "children": [
        1
      ],
      "matrix": [
        1.0,
        0.0,
        0.0,
        0.0,
        0.0,
        2.220446049250313e-16,
        -1.0,
        0.0,
        0.0,
        1.0,
        2.220446049250313e-16,
        0.0,
        0.0,
        0.0,
        0.0,
        1.0
      ],
      "name": "Sketchfab_model"
    },
    {
      "children": [
        2
      ],
      "name": "root"
    },
    {
      "children": [
        3
      ],
      "matrix": [
        1.0,
        0.0,
        0.0,
        0.0,
        0.0,
        2.220446049250313e-16,
        1.0,
        0.0,
        0.0,
        -1.0,
        2.220446049250313e-16,
        0.0,
        0.0,
        0.0,
        0.0,
        1.0
      ],
      "name": "GLTF_SceneRootNode"
    },
    {
      "children": [
        4
      ],
      "matrix": [
        0.5403034687042236,
        0.0,
        0.0,
        0.0,
        0.0,
        0.5403034687042236,
        0.0,
        0.0,
        0.0,
        0.0,
        0.5403034687042236,
        0.0,
        -0.2705877721309662,
        0.516569972038269,
        0.0,
        1.0
      ],
      "name": "Heels 1_2"
    },
    {
      "mesh": 0,
      "name": "Object_4"
    }
  ],
  "samplers": [
    {
      "magFilter": 9729,
      "minFilter": 9987,
      "wrapS": 10497,
      "wrapT": 10497
    }
  ],
  "scene": 0,
  "scenes": [
    {
      "name": "Sketchfab_Scene",
      "nodes": [
        0
      ]
    }
  ],
  "textures": [
    {
      "sampler": 0,
      "source": 0
    },
    {
      "sampler": 0,
      "source": 1
    },
    {
      "sampler": 0,
      "source": 2
    }
  ]
}
